<svg xmlns="http://www.w3.org/2000/svg" width="1200" height="540" viewBox="0 0 1200 540" fill="none" role="img" aria-labelledby="title desc">
<title id="title">Projets clients confidentiels</title>
<desc id="desc">Cartes anonymisées de projets backend clients.</desc>

<defs>
  <linearGradient id="bg" x1="0" y1="0" x2="1" y2="1">
    <stop offset="0" stop-color="#010409"/><stop offset="0.55" stop-color="#07111d"/><stop offset="1" stop-color="#0d1117"/>
  </linearGradient>
  <radialGradient id="glowBlue" cx="0" cy="0" r="1" gradientUnits="userSpaceOnUse" gradientTransform="translate(900 120) rotate(70) scale(360 520)">
    <stop stop-color="#1f6feb" stop-opacity="0.46"/><stop offset="0.55" stop-color="#bc8cff" stop-opacity="0.16"/><stop offset="1" stop-color="#010409" stop-opacity="0"/>
  </radialGradient>
  <radialGradient id="glowGreen" cx="0" cy="0" r="1" gradientUnits="userSpaceOnUse" gradientTransform="translate(180 360) rotate(40) scale(260 360)">
    <stop stop-color="#3fb950" stop-opacity="0.22"/><stop offset="1" stop-color="#010409" stop-opacity="0"/>
  </radialGradient>
  <pattern id="grid" width="36" height="36" patternUnits="userSpaceOnUse">
    <path d="M36 0H0V36" stroke="#30363d" stroke-opacity="0.38" stroke-width="1"/>
  </pattern>
  <filter id="shadow" x="-20%" y="-20%" width="140%" height="145%" color-interpolation-filters="sRGB">
    <feDropShadow dx="0" dy="18" stdDeviation="24" flood-color="#000" flood-opacity="0.44"/>
  </filter>
  <style>
  .sans{font-family:-apple-system,BlinkMacSystemFont,"Segoe UI",Arial,sans-serif}
  .mono{font-family:"SFMono-Regular",Consolas,"Liberation Mono",monospace}
  .text{fill:#e6edf3} .soft{fill:#c9d1d9} .muted{fill:#8b949e}
  .blue{fill:#58a6ff} .green{fill:#3fb950} .purple{fill:#bc8cff} .orange{fill:#d29922} .red{fill:#f85149}
  .panel{fill:#0d1117;stroke:#30363d;stroke-width:1.6}
  .panel2{fill:#161b22;stroke:#30363d;stroke-width:1.4}
</style>

</defs>
<rect width="1200" height="540" rx="12" fill="url(#bg)"/>
<rect width="1200" height="540" rx="12" fill="url(#grid)" opacity="0.42"/>
<rect width="1200" height="540" rx="12" fill="url(#glowBlue)"/>
<rect width="1200" height="540" rx="12" fill="url(#glowGreen)"/>

<rect x="24" y="24" width="1152" height="492" rx="26" class="panel" filter="url(#shadow)"/>
<text x="58" y="82" class="sans text" font-size="40" font-weight="900" text-anchor="start" opacity="1">Projets Clients Confidentiels</text>
<g opacity="1">
    <rect x="800" y="58" width="36" height="36" rx="10" fill="#58a6ff22" stroke="#58a6ff" stroke-width="1.4"/>
    <circle cx="818" cy="76" r="10" fill="#58a6ff" opacity="0.95"/>
    <text x="818" y="78.88" font-family="SFMono-Regular,Consolas,Liberation Mono,monospace" font-size="9" font-weight="900" text-anchor="middle" fill="#e6edf3" opacity="1">API</text>
  </g>
<g opacity="1">
    <rect x="850" y="58" width="36" height="36" rx="10" fill="#3fb95022" stroke="#3fb950" stroke-width="1.4"/>
    <circle cx="868" cy="76" r="10" fill="#3fb950" opacity="0.95"/>
    <text x="868" y="78.88" font-family="SFMono-Regular,Consolas,Liberation Mono,monospace" font-size="12" font-weight="900" text-anchor="middle" fill="#e6edf3" opacity="1">Au</text>
  </g>
<g opacity="1">
    <rect x="900" y="58" width="36" height="36" rx="10" fill="#d2992222" stroke="#d29922" stroke-width="1.4"/>
    <circle cx="918" cy="76" r="10" fill="#d29922" opacity="0.95"/>
    <text x="918" y="78.88" font-family="SFMono-Regular,Consolas,Liberation Mono,monospace" font-size="12" font-weight="900" text-anchor="middle" fill="#e6edf3" opacity="1">DB</text>
  </g>
<g opacity="1">
    <rect x="950" y="58" width="36" height="36" rx="10" fill="#bc8cff22" stroke="#bc8cff" stroke-width="1.4"/>
    <circle cx="968" cy="76" r="10" fill="#bc8cff" opacity="0.95"/>
    <text x="968" y="78.88" font-family="SFMono-Regular,Consolas,Liberation Mono,monospace" font-size="12" font-weight="900" text-anchor="middle" fill="#e6edf3" opacity="1">W</text>
  </g>
<g opacity="1">
    <rect x="1000" y="58" width="36" height="36" rx="10" fill="#2496ED22" stroke="#2496ED" stroke-width="1.4"/>
    <circle cx="1018" cy="76" r="10" fill="#2496ED" opacity="0.95"/>
    <text x="1018" y="78.88" font-family="SFMono-Regular,Consolas,Liberation Mono,monospace" font-size="12" font-weight="900" text-anchor="middle" fill="#e6edf3" opacity="1">DK</text>
  </g>
<g transform="translate(54 146)">
      <rect x="0" y="0" width="326" height="118" rx="16" class="panel2"/>
      <rect x="0" y="0" width="326" height="38" rx="16" fill="#58a6ff22" stroke="#58a6ff"/>
      <text x="20" y="25" class="mono text" font-size="15" font-weight="900" text-anchor="start" opacity="1">MOBILITÉ TERRAIN</text>
      <g opacity="1">
    <rect x="272" y="56" width="34" height="34" rx="10" fill="#58a6ff22" stroke="#58a6ff" stroke-width="1.4"/>
    <circle cx="289" cy="73" r="10" fill="#58a6ff" opacity="0.95"/>
    <text x="289" y="75.72" font-family="SFMono-Regular,Consolas,Liberation Mono,monospace" font-size="12" font-weight="900" text-anchor="middle" fill="#e6edf3" opacity="1">Mb</text>
  </g>
      <text x="20" y="78" class="sans soft" font-size="21" font-weight="850" text-anchor="start" opacity="1">API + cartes + fichiers</text>
      <g opacity="1">
    <rect x="20" y="88" width="24" height="24" rx="7" fill="#58a6ff22" stroke="#58a6ff" stroke-width="1.4"/>
    <circle cx="32" cy="100" r="7" fill="#58a6ff" opacity="0.95"/>
    <text x="32" y="101.92" font-family="SFMono-Regular,Consolas,Liberation Mono,monospace" font-size="6" font-weight="900" text-anchor="middle" fill="#e6edf3" opacity="1">API</text>
  </g>
<g opacity="1">
    <rect x="60" y="88" width="24" height="24" rx="7" fill="#58a6ff22" stroke="#58a6ff" stroke-width="1.4"/>
    <circle cx="72" cy="100" r="7" fill="#58a6ff" opacity="0.95"/>
    <text x="72" y="101.92" font-family="SFMono-Regular,Consolas,Liberation Mono,monospace" font-size="8" font-weight="900" text-anchor="middle" fill="#e6edf3" opacity="1">DB</text>
  </g>
<g opacity="1">
    <rect x="100" y="88" width="24" height="24" rx="7" fill="#58a6ff22" stroke="#58a6ff" stroke-width="1.4"/>
    <circle cx="112" cy="100" r="7" fill="#58a6ff" opacity="0.95"/>
    <text x="112" y="101.92" font-family="SFMono-Regular,Consolas,Liberation Mono,monospace" font-size="8" font-weight="900" text-anchor="middle" fill="#e6edf3" opacity="1">Mb</text>
  </g>
    </g>
<g transform="translate(418 146)">
      <rect x="0" y="0" width="326" height="118" rx="16" class="panel2"/>
      <rect x="0" y="0" width="326" height="38" rx="16" fill="#bc8cff22" stroke="#bc8cff"/>
      <text x="20" y="25" class="mono text" font-size="15" font-weight="900" text-anchor="start" opacity="1">ASSISTANT IA MÉTIER</text>
      <g opacity="1">
    <rect x="272" y="56" width="34" height="34" rx="10" fill="#bc8cff22" stroke="#bc8cff" stroke-width="1.4"/>
    <circle cx="289" cy="73" r="10" fill="#bc8cff" opacity="0.95"/>
    <text x="289" y="75.72" font-family="SFMono-Regular,Consolas,Liberation Mono,monospace" font-size="12" font-weight="900" text-anchor="middle" fill="#e6edf3" opacity="1">AI</text>
  </g>
      <text x="20" y="78" class="sans soft" font-size="21" font-weight="850" text-anchor="start" opacity="1">RAG + cache + API</text>
      <g opacity="1">
    <rect x="20" y="88" width="24" height="24" rx="7" fill="#bc8cff22" stroke="#bc8cff" stroke-width="1.4"/>
    <circle cx="32" cy="100" r="7" fill="#bc8cff" opacity="0.95"/>
    <text x="32" y="101.92" font-family="SFMono-Regular,Consolas,Liberation Mono,monospace" font-size="8" font-weight="900" text-anchor="middle" fill="#e6edf3" opacity="1">AI</text>
  </g>
<g opacity="1">
    <rect x="60" y="88" width="24" height="24" rx="7" fill="#bc8cff22" stroke="#bc8cff" stroke-width="1.4"/>
    <circle cx="72" cy="100" r="7" fill="#bc8cff" opacity="0.95"/>
    <text x="72" y="101.92" font-family="SFMono-Regular,Consolas,Liberation Mono,monospace" font-size="6" font-weight="900" text-anchor="middle" fill="#e6edf3" opacity="1">API</text>
  </g>
<g opacity="1">
    <rect x="100" y="88" width="24" height="24" rx="7" fill="#bc8cff22" stroke="#bc8cff" stroke-width="1.4"/>
    <circle cx="112" cy="100" r="7" fill="#bc8cff" opacity="0.95"/>
    <text x="112" y="101.92" font-family="SFMono-Regular,Consolas,Liberation Mono,monospace" font-size="8" font-weight="900" text-anchor="middle" fill="#e6edf3" opacity="1">DB</text>
  </g>
    </g>
<g transform="translate(782 146)">
      <rect x="0" y="0" width="326" height="118" rx="16" class="panel2"/>
      <rect x="0" y="0" width="326" height="38" rx="16" fill="#3fb95022" stroke="#3fb950"/>
      <text x="20" y="25" class="mono text" font-size="15" font-weight="900" text-anchor="start" opacity="1">AUTOMATISATION VENTE</text>
      <g opacity="1">
    <rect x="272" y="56" width="34" height="34" rx="10" fill="#3fb95022" stroke="#3fb950" stroke-width="1.4"/>
    <circle cx="289" cy="73" r="10" fill="#3fb950" opacity="0.95"/>
    <text x="289" y="75.72" font-family="SFMono-Regular,Consolas,Liberation Mono,monospace" font-size="12" font-weight="900" text-anchor="middle" fill="#e6edf3" opacity="1">WA</text>
  </g>
      <text x="20" y="78" class="sans soft" font-size="21" font-weight="850" text-anchor="start" opacity="1">WhatsApp + desktop</text>
      <g opacity="1">
    <rect x="20" y="88" width="24" height="24" rx="7" fill="#3fb95022" stroke="#3fb950" stroke-width="1.4"/>
    <circle cx="32" cy="100" r="7" fill="#3fb950" opacity="0.95"/>
    <text x="32" y="101.92" font-family="SFMono-Regular,Consolas,Liberation Mono,monospace" font-size="8" font-weight="900" text-anchor="middle" fill="#e6edf3" opacity="1">WA</text>
  </g>
<g opacity="1">
    <rect x="60" y="88" width="24" height="24" rx="7" fill="#3fb95022" stroke="#3fb950" stroke-width="1.4"/>
    <circle cx="72" cy="100" r="7" fill="#3fb950" opacity="0.95"/>
    <text x="72" y="101.92" font-family="SFMono-Regular,Consolas,Liberation Mono,monospace" font-size="8" font-weight="900" text-anchor="middle" fill="#e6edf3" opacity="1">W</text>
  </g>
<g opacity="1">
    <rect x="100" y="88" width="24" height="24" rx="7" fill="#3fb95022" stroke="#3fb950" stroke-width="1.4"/>
    <circle cx="112" cy="100" r="7" fill="#3fb950" opacity="0.95"/>
    <text x="112" y="101.92" font-family="SFMono-Regular,Consolas,Liberation Mono,monospace" font-size="8" font-weight="900" text-anchor="middle" fill="#e6edf3" opacity="1">DB</text>
  </g>
    </g>
<g transform="translate(54 298)">
      <rect x="0" y="0" width="326" height="118" rx="16" class="panel2"/>
      <rect x="0" y="0" width="326" height="38" rx="16" fill="#d2992222" stroke="#d29922"/>
      <text x="20" y="25" class="mono text" font-size="15" font-weight="900" text-anchor="start" opacity="1">OCR &amp; FICHIERS</text>
      <g opacity="1">
    <rect x="272" y="56" width="34" height="34" rx="10" fill="#d2992222" stroke="#d29922" stroke-width="1.4"/>
    <circle cx="289" cy="73" r="10" fill="#d29922" opacity="0.95"/>
    <text x="289" y="75.72" font-family="SFMono-Regular,Consolas,Liberation Mono,monospace" font-size="9" font-weight="900" text-anchor="middle" fill="#010409" opacity="1">OCR</text>
  </g>
      <text x="20" y="78" class="sans soft" font-size="21" font-weight="850" text-anchor="start" opacity="1">mobile + backend</text>
      <g opacity="1">
    <rect x="20" y="88" width="24" height="24" rx="7" fill="#d2992222" stroke="#d29922" stroke-width="1.4"/>
    <circle cx="32" cy="100" r="7" fill="#d29922" opacity="0.95"/>
    <text x="32" y="101.92" font-family="SFMono-Regular,Consolas,Liberation Mono,monospace" font-size="6" font-weight="900" text-anchor="middle" fill="#010409" opacity="1">OCR</text>
  </g>
<g opacity="1">
    <rect x="60" y="88" width="24" height="24" rx="7" fill="#d2992222" stroke="#d29922" stroke-width="1.4"/>
    <circle cx="72" cy="100" r="7" fill="#d29922" opacity="0.95"/>
    <text x="72" y="101.92" font-family="SFMono-Regular,Consolas,Liberation Mono,monospace" font-size="6" font-weight="900" text-anchor="middle" fill="#e6edf3" opacity="1">API</text>
  </g>
<g opacity="1">
    <rect x="100" y="88" width="24" height="24" rx="7" fill="#d2992222" stroke="#d29922" stroke-width="1.4"/>
    <circle cx="112" cy="100" r="7" fill="#d29922" opacity="0.95"/>
    <text x="112" y="101.92" font-family="SFMono-Regular,Consolas,Liberation Mono,monospace" font-size="8" font-weight="900" text-anchor="middle" fill="#e6edf3" opacity="1">DK</text>
  </g>
    </g>
<g transform="translate(418 298)">
      <rect x="0" y="0" width="326" height="118" rx="16" class="panel2"/>
      <rect x="0" y="0" width="326" height="38" rx="16" fill="#3fb95022" stroke="#3fb950"/>
      <text x="20" y="25" class="mono text" font-size="15" font-weight="900" text-anchor="start" opacity="1">IOT ÉNERGIE</text>
      <g opacity="1">
    <rect x="272" y="56" width="34" height="34" rx="10" fill="#3fb95022" stroke="#3fb950" stroke-width="1.4"/>
    <circle cx="289" cy="73" r="10" fill="#3fb950" opacity="0.95"/>
    <text x="289" y="75.72" font-family="SFMono-Regular,Consolas,Liberation Mono,monospace" font-size="12" font-weight="900" text-anchor="middle" fill="#e6edf3" opacity="1">MQ</text>
  </g>
      <text x="20" y="78" class="sans soft" font-size="21" font-weight="850" text-anchor="start" opacity="1">MQTT + workers</text>
      <g opacity="1">
    <rect x="20" y="88" width="24" height="24" rx="7" fill="#3fb95022" stroke="#3fb950" stroke-width="1.4"/>
    <circle cx="32" cy="100" r="7" fill="#3fb950" opacity="0.95"/>
    <text x="32" y="101.92" font-family="SFMono-Regular,Consolas,Liberation Mono,monospace" font-size="8" font-weight="900" text-anchor="middle" fill="#e6edf3" opacity="1">MQ</text>
  </g>
<g opacity="1">
    <rect x="60" y="88" width="24" height="24" rx="7" fill="#3fb95022" stroke="#3fb950" stroke-width="1.4"/>
    <circle cx="72" cy="100" r="7" fill="#3fb950" opacity="0.95"/>
    <text x="72" y="101.92" font-family="SFMono-Regular,Consolas,Liberation Mono,monospace" font-size="8" font-weight="900" text-anchor="middle" fill="#e6edf3" opacity="1">W</text>
  </g>
<g opacity="1">
    <rect x="100" y="88" width="24" height="24" rx="7" fill="#3fb95022" stroke="#3fb950" stroke-width="1.4"/>
    <circle cx="112" cy="100" r="7" fill="#3fb950" opacity="0.95"/>
    <text x="112" y="101.92" font-family="SFMono-Regular,Consolas,Liberation Mono,monospace" font-size="8" font-weight="900" text-anchor="middle" fill="#e6edf3" opacity="1">Mo</text>
  </g>
    </g>
<g transform="translate(782 298)">
      <rect x="0" y="0" width="326" height="118" rx="16" class="panel2"/>
      <rect x="0" y="0" width="326" height="38" rx="16" fill="#58a6ff22" stroke="#58a6ff"/>
      <text x="20" y="25" class="mono text" font-size="15" font-weight="900" text-anchor="start" opacity="1">OUTILS INTERNES</text>
      <g opacity="1">
    <rect x="272" y="56" width="34" height="34" rx="10" fill="#58a6ff22" stroke="#58a6ff" stroke-width="1.4"/>
    <circle cx="289" cy="73" r="10" fill="#58a6ff" opacity="0.95"/>
    <text x="289" y="75.72" font-family="SFMono-Regular,Consolas,Liberation Mono,monospace" font-size="9" font-weight="900" text-anchor="middle" fill="#e6edf3" opacity="1">Ops</text>
  </g>
      <text x="20" y="78" class="sans soft" font-size="21" font-weight="850" text-anchor="start" opacity="1">routes + services</text>
      <g opacity="1">
    <rect x="20" y="88" width="24" height="24" rx="7" fill="#58a6ff22" stroke="#58a6ff" stroke-width="1.4"/>
    <circle cx="32" cy="100" r="7" fill="#58a6ff" opacity="0.95"/>
    <text x="32" y="101.92" font-family="SFMono-Regular,Consolas,Liberation Mono,monospace" font-size="8" font-weight="900" text-anchor="middle" fill="#e6edf3" opacity="1">Au</text>
  </g>
<g opacity="1">
    <rect x="60" y="88" width="24" height="24" rx="7" fill="#58a6ff22" stroke="#58a6ff" stroke-width="1.4"/>
    <circle cx="72" cy="100" r="7" fill="#58a6ff" opacity="0.95"/>
    <text x="72" y="101.92" font-family="SFMono-Regular,Consolas,Liberation Mono,monospace" font-size="6" font-weight="900" text-anchor="middle" fill="#e6edf3" opacity="1">API</text>
  </g>
<g opacity="1">
    <rect x="100" y="88" width="24" height="24" rx="7" fill="#58a6ff22" stroke="#58a6ff" stroke-width="1.4"/>
    <circle cx="112" cy="100" r="7" fill="#58a6ff" opacity="0.95"/>
    <text x="112" y="101.92" font-family="SFMono-Regular,Consolas,Liberation Mono,monospace" font-size="8" font-weight="900" text-anchor="middle" fill="#e6edf3" opacity="1">DK</text>
  </g>
    </g>
<rect x="58" y="452" width="1084" height="38" rx="10" fill="#010409" stroke="#30363d"/>
<text x="84" y="477" class="mono green" font-size="16" font-weight="800" text-anchor="start" opacity="1">api -&gt; auth -&gt; data -&gt; workers -&gt; docker -&gt; monitoring</text>
</svg>