<svg xmlns="http://www.w3.org/2000/svg" width="1200" height="380" viewBox="0 0 1200 380" fill="none" role="img" aria-labelledby="title desc">
<title id="title">GitHub activity</title>
<desc id="desc">Courbe stylisée de l’activité GitHub.</desc>

<defs>
  <linearGradient id="bg" x1="0" y1="0" x2="1" y2="1">
    <stop offset="0" stop-color="#010409"/><stop offset="0.55" stop-color="#07111d"/><stop offset="1" stop-color="#0d1117"/>
  </linearGradient>
  <radialGradient id="glowBlue" cx="0" cy="0" r="1" gradientUnits="userSpaceOnUse" gradientTransform="translate(900 120) rotate(70) scale(360 520)">
    <stop stop-color="#1f6feb" stop-opacity="0.46"/><stop offset="0.55" stop-color="#bc8cff" stop-opacity="0.16"/><stop offset="1" stop-color="#010409" stop-opacity="0"/>
  </radialGradient>
  <radialGradient id="glowGreen" cx="0" cy="0" r="1" gradientUnits="userSpaceOnUse" gradientTransform="translate(180 360) rotate(40) scale(260 360)">
    <stop stop-color="#3fb950" stop-opacity="0.22"/><stop offset="1" stop-color="#010409" stop-opacity="0"/>
  </radialGradient>
  <pattern id="grid" width="36" height="36" patternUnits="userSpaceOnUse">
    <path d="M36 0H0V36" stroke="#30363d" stroke-opacity="0.38" stroke-width="1"/>
  </pattern>
  <filter id="shadow" x="-20%" y="-20%" width="140%" height="145%" color-interpolation-filters="sRGB">
    <feDropShadow dx="0" dy="18" stdDeviation="24" flood-color="#000" flood-opacity="0.44"/>
  </filter>
  <style>
  .sans{font-family:-apple-system,BlinkMacSystemFont,"Segoe UI",Arial,sans-serif}
  .mono{font-family:"SFMono-Regular",Consolas,"Liberation Mono",monospace}
  .text{fill:#e6edf3} .soft{fill:#c9d1d9} .muted{fill:#8b949e}
  .blue{fill:#58a6ff} .green{fill:#3fb950} .purple{fill:#bc8cff} .orange{fill:#d29922} .red{fill:#f85149}
  .panel{fill:#0d1117;stroke:#30363d;stroke-width:1.6}
  .panel2{fill:#161b22;stroke:#30363d;stroke-width:1.4}
</style>

</defs>
<rect width="1200" height="380" rx="12" fill="url(#bg)"/>
<rect width="1200" height="380" rx="12" fill="url(#grid)" opacity="0.42"/>
<rect width="1200" height="380" rx="12" fill="url(#glowBlue)"/>
<rect width="1200" height="380" rx="12" fill="url(#glowGreen)"/>

<rect x="24" y="24" width="1152" height="332" rx="26" class="panel" filter="url(#shadow)"/>
<text x="58" y="82" class="sans text" font-size="40" font-weight="900" text-anchor="start" opacity="1">Activité GitHub</text>
<text x="58" y="116" class="sans muted" font-size="18" font-weight="500" text-anchor="start" opacity="1">Un rythme de build: commits, itérations, corrections, livraisons.</text>
<rect x="58" y="148" width="1084" height="156" rx="18" fill="#010409" stroke="#30363d"/>
<path d="M78 276 C136 218 160 236 208 178 S288 154 326 198 S390 254 438 180 S526 118 590 166 S682 226 732 148 S824 94 902 132 S1000 210 1102 88 V304 H78 Z" fill="#1f6feb" opacity="0.18"/>
<path d="M78 276 C136 218 160 236 208 178 S288 154 326 198 S390 254 438 180 S526 118 590 166 S682 226 732 148 S824 94 902 132 S1000 210 1102 88" stroke="#58a6ff" stroke-width="4" fill="none" stroke-linecap="round"/>
<text x="78" y="332" class="mono green" font-size="15" font-weight="800" text-anchor="start" opacity="1">commit stream · backend work · private repos included</text>
</svg>