<svg width="1600" height="2380" viewBox="0 0 1600 2380" fill="none" xmlns="http://www.w3.org/2000/svg" role="img" aria-labelledby="title desc">
  <title id="title">TheLaboFerdi Backend Lab GitHub profile dashboard</title>
  <desc id="desc">Dark GitHub repository style dashboard presenting Ferdi backend engineering profile, modules, stack, metrics and links.</desc>
  <defs>
    <linearGradient id="pageGlow" x1="0" y1="0" x2="1600" y2="2380" gradientUnits="userSpaceOnUse">
      <stop stop-color="#04101c"/>
      <stop offset="0.42" stop-color="#02070d"/>
      <stop offset="1" stop-color="#010409"/>
    </linearGradient>
    <radialGradient id="heroGlow" cx="0" cy="0" r="1" gradientUnits="userSpaceOnUse" gradientTransform="translate(840 310) rotate(64) scale(460 520)">
      <stop stop-color="#1f6feb" stop-opacity="0.46"/>
      <stop offset="0.42" stop-color="#0d419d" stop-opacity="0.24"/>
      <stop offset="1" stop-color="#010409" stop-opacity="0"/>
    </radialGradient>
    <radialGradient id="cardGlow" cx="0" cy="0" r="1" gradientUnits="userSpaceOnUse" gradientTransform="translate(690 160) rotate(80) scale(360 580)">
      <stop stop-color="#58a6ff" stop-opacity="0.18"/>
      <stop offset="1" stop-color="#58a6ff" stop-opacity="0"/>
    </radialGradient>
    <linearGradient id="blueButton" x1="0" y1="0" x2="170" y2="0" gradientUnits="userSpaceOnUse">
      <stop stop-color="#1f6feb"/>
      <stop offset="1" stop-color="#2f81f7"/>
    </linearGradient>
    <linearGradient id="greenLine" x1="0" y1="0" x2="250" y2="0" gradientUnits="userSpaceOnUse">
      <stop stop-color="#238636"/>
      <stop offset="1" stop-color="#3fb950"/>
    </linearGradient>
    <linearGradient id="orangeLine" x1="0" y1="0" x2="250" y2="0" gradientUnits="userSpaceOnUse">
      <stop stop-color="#d29922"/>
      <stop offset="1" stop-color="#f0883e"/>
    </linearGradient>
    <filter id="softShadow" x="-20%" y="-20%" width="140%" height="140%" color-interpolation-filters="sRGB">
      <feDropShadow dx="0" dy="18" stdDeviation="28" flood-color="#000000" flood-opacity="0.42"/>
    </filter>
    <filter id="blueShadow" x="-35%" y="-35%" width="170%" height="170%" color-interpolation-filters="sRGB">
      <feDropShadow dx="0" dy="0" stdDeviation="18" flood-color="#2f81f7" flood-opacity="0.58"/>
    </filter>
    <pattern id="grid" width="34" height="34" patternUnits="userSpaceOnUse">
      <path d="M34 0H0V34" stroke="#1b2a3a" stroke-opacity="0.28" stroke-width="1"/>
    </pattern>
    <style>
      .sans{font-family:-apple-system,BlinkMacSystemFont,"Segoe UI",Arial,sans-serif}
      .mono{font-family:"SFMono-Regular",Consolas,"Liberation Mono",monospace}
      .small{font-size:18px}.tiny{font-size:15px}.micro{font-size:13px}
      .muted{fill:#8b949e}.text{fill:#e6edf3}.soft{fill:#c9d1d9}.blue{fill:#58a6ff}.green{fill:#3fb950}.orange{fill:#d29922}.red{fill:#f85149}.purple{fill:#bc8cff}
      .card{fill:#07111d;stroke:#1f2d3d;stroke-width:1.6}
      .card2{fill:#0b1624;stroke:#213348;stroke-width:1.4}
      .inner{fill:#0d1826;stroke:#26384d;stroke-width:1.3}
      .line{stroke:#1f2d3d;stroke-width:1.4}
      .thin{stroke:#303f52;stroke-width:1.2}
      .chip{fill:#0d1826;stroke:#26384d;stroke-width:1.2}
      .code{fill:#111d2b;stroke:#24364a;stroke-width:1.2}
    </style>
  </defs>

  <rect width="1600" height="2380" fill="url(#pageGlow)"/>
  <rect width="1600" height="2380" fill="url(#grid)" opacity="0.26"/>
  <rect width="1600" height="2380" fill="url(#heroGlow)"/>

  <!-- GitHub chrome -->
  <g class="sans">
    <rect x="0" y="0" width="1600" height="110" fill="#010409"/>
    <path d="M0 109.5H1600" stroke="#1f2d3d"/>
    <circle cx="38" cy="32" r="18" fill="#e6edf3"/>
    <path d="M29 32c0-5 4-9 9-9s9 4 9 9c0 4-2 7-5 8v5c0 1-1 2-2 2h-4c-1 0-2-1-2-2v-5c-3-1-5-4-5-8z" fill="#010409"/>
    <text x="78" y="38" class="small muted" font-weight="600">thelabofferdi</text>
    <text x="214" y="38" class="small muted">/</text>
    <text x="238" y="38" class="small text" font-weight="700">thelabofferdi</text>
    <rect x="394" y="18" width="58" height="28" rx="14" fill="#0d1826" stroke="#30363d"/>
    <text x="412" y="37" class="micro muted" font-weight="700">Public</text>

    <rect x="1080" y="14" width="310" height="34" rx="6" fill="#010409" stroke="#30363d"/>
    <text x="1112" y="36" class="micro muted">Type / to search</text>
    <path d="M1098 25a6 6 0 1 0 0 12a6 6 0 0 0 0-12m5 10l6 6" stroke="#8b949e" stroke-width="2" stroke-linecap="round"/>
    <rect x="1408" y="14" width="76" height="34" rx="6" fill="#010409" stroke="#30363d"/>
    <text x="1434" y="36" class="micro text" font-weight="700">Star</text>
    <text x="1470" y="36" class="micro muted">112</text>
    <path d="M1423 24l3 6l7 1l-5 5l1 7l-6-3l-6 3l1-7l-5-5l7-1z" stroke="#8b949e" stroke-width="1.5" fill="none"/>
    <rect x="1492" y="14" width="76" height="34" rx="6" fill="#010409" stroke="#30363d"/>
    <text x="1516" y="36" class="micro text" font-weight="700">Fork</text>
    <text x="1552" y="36" class="micro muted">34</text>

    <g transform="translate(26 76)">
      <text x="0" y="0" class="micro text" font-weight="700">Code</text>
      <text x="84" y="0" class="micro muted" font-weight="700">Issues</text>
      <text x="166" y="0" class="micro muted" font-weight="700">Pull requests</text>
      <text x="302" y="0" class="micro muted" font-weight="700">Actions</text>
      <text x="404" y="0" class="micro muted" font-weight="700">Projects</text>
      <text x="506" y="0" class="micro muted" font-weight="700">Security</text>
      <text x="610" y="0" class="micro muted" font-weight="700">Insights</text>
      <rect x="-3" y="23" width="52" height="2.5" rx="1" fill="#f78166"/>
    </g>
  </g>

  <!-- Toolbar -->
  <g transform="translate(36 126)" class="sans">
    <rect x="0" y="0" width="122" height="36" rx="7" fill="#0d1826" stroke="#30363d"/>
    <text x="34" y="23" class="micro text" font-weight="700">main</text>
    <path d="M18 11v15M18 15c9 0 13-4 20-4" stroke="#8b949e" stroke-width="1.8" stroke-linecap="round"/>
    <text x="150" y="23" class="micro muted">4 branches</text>
    <text x="252" y="23" class="micro muted">12 tags</text>
    <rect x="772" y="0" width="98" height="36" rx="7" fill="#0d1826" stroke="#30363d"/>
    <text x="794" y="23" class="micro text" font-weight="700">Go to file</text>
    <rect x="882" y="0" width="54" height="36" rx="7" fill="#0d1826" stroke="#30363d"/>
    <path d="M900 19h18M909 10v18" stroke="#8b949e" stroke-width="1.8" stroke-linecap="round"/>
    <rect x="948" y="0" width="118" height="36" rx="7" fill="#238636" stroke="#2ea043"/>
    <text x="992" y="23" class="micro text" font-weight="800">Code</text>
    <path d="M972 13l-8 6l8 6M1026 15l6 6l6-6" stroke="#e6edf3" stroke-width="1.8" stroke-linecap="round" stroke-linejoin="round"/>
  </g>

  <!-- Main grid -->
  <g transform="translate(36 178)">
    <rect x="0" y="0" width="1060" height="488" rx="8" class="card" filter="url(#softShadow)"/>
    <rect x="0" y="0" width="1060" height="488" rx="8" fill="url(#cardGlow)"/>
    <g class="sans">
      <rect x="0" y="0" width="1060" height="42" rx="8" fill="#07111d"/>
      <path d="M0 42H1060" class="line"/>
      <path d="M24 14h16v18H24zM27 18h10" stroke="#8b949e" stroke-width="1.5" fill="none"/>
      <text x="52" y="27" class="micro muted" font-weight="700">README.md</text>

      <text x="42" y="150" class="sans text" font-size="72" font-weight="800">Ferdi</text>
      <text x="224" y="150" class="sans blue" font-size="72" font-weight="800">Backend</text>
      <text x="548" y="150" class="sans" font-size="72" font-weight="800" fill="#6e7cff">Lab</text>
      <text x="44" y="198" class="small soft">APIs propres, services fiables, automatisation et données bien gardées.</text>

      <g transform="translate(44 232)">
        <rect x="0" y="0" width="110" height="30" rx="15" fill="#10261a" stroke="#238636"/>
        <circle cx="18" cy="15" r="6" fill="#3fb950"/>
        <text x="32" y="20" class="micro text" font-weight="800">FastAPI</text>
        <rect x="122" y="0" width="104" height="30" rx="15" fill="#271a10" stroke="#9e6a03"/>
        <text x="141" y="20" class="micro text" font-weight="800">NestJS</text>
        <rect x="238" y="0" width="128" height="30" rx="15" fill="#0b1d2e" stroke="#1f6feb"/>
        <text x="258" y="20" class="micro text" font-weight="800">PostgreSQL</text>
        <rect x="378" y="0" width="92" height="30" rx="15" fill="#0b1d2e" stroke="#1f6feb"/>
        <text x="399" y="20" class="micro text" font-weight="800">Docker</text>
        <rect x="482" y="0" width="90" height="30" rx="15" fill="#1c1230" stroke="#8957e5"/>
        <text x="508" y="20" class="micro text" font-weight="800">JWT</text>
      </g>

      <g transform="translate(44 292)">
        <rect x="0" y="0" width="138" height="44" rx="7" fill="url(#blueButton)" stroke="#388bfd"/>
        <path d="M24 16l10 7l-10 7M38 23h18" stroke="#ffffff" stroke-width="2" stroke-linecap="round" stroke-linejoin="round"/>
        <text x="68" y="28" class="micro text" font-weight="800">Start</text>
        <rect x="154" y="0" width="138" height="44" rx="7" fill="#0d1826" stroke="#30363d"/>
        <path d="M178 15h16v18h-16zM194 15h16v18h-16" stroke="#8b949e" stroke-width="1.5" fill="none"/>
        <text x="220" y="28" class="micro text" font-weight="800">Voir docs</text>
      </g>
    </g>

    <!-- Isometric backend lab illustration -->
    <g transform="translate(658 72)" filter="url(#blueShadow)">
      <path d="M190 0l206 102l-206 112L-16 102z" fill="#0b1d34" stroke="#1f6feb" stroke-width="2"/>
      <path d="M190 52l128 63l-128 70L62 115z" fill="#0f2b4d" stroke="#388bfd" stroke-width="2"/>
      <path d="M190 87l82 40l-82 45l-82-45z" fill="#1f6feb" opacity="0.42"/>
      <path d="M92 208l98 50l100-50" stroke="#1f6feb" stroke-width="2" opacity="0.8"/>
      <path d="M42 146v78M338 146v78M190 214v74" stroke="#1f6feb" stroke-width="2" opacity="0.55"/>
      <rect x="128" y="76" width="124" height="124" rx="14" fill="#10264a" stroke="#58a6ff" stroke-width="3"/>
      <path d="M128 76l62-34l62 34l-62 34z" fill="#173a70" stroke="#58a6ff" stroke-width="3"/>
      <path d="M252 76l62 34v124l-62-34z" fill="#06172b" stroke="#1f6feb" stroke-width="3"/>
      <rect x="156" y="112" width="68" height="42" rx="21" fill="#07111d" stroke="#58a6ff" stroke-width="2"/>
      <text x="172" y="140" class="sans text" font-size="22" font-weight="800">API</text>
      <rect x="150" y="170" width="80" height="10" rx="5" fill="#58a6ff"/>
      <rect x="150" y="188" width="80" height="10" rx="5" fill="#2f81f7"/>

      <g transform="translate(-14 110)">
        <rect x="0" y="0" width="54" height="82" rx="8" fill="#0d1826" stroke="#1f6feb" stroke-width="2"/>
        <rect x="10" y="14" width="34" height="8" rx="4" fill="#58a6ff"/>
        <rect x="10" y="32" width="34" height="8" rx="4" fill="#2f81f7"/>
        <rect x="10" y="50" width="34" height="8" rx="4" fill="#58a6ff"/>
      </g>
      <g transform="translate(356 112)">
        <rect x="0" y="0" width="60" height="78" rx="7" fill="#0d1826" stroke="#1f6feb" stroke-width="2"/>
        <path d="M13 22h34M13 39h34M13 56h24" stroke="#58a6ff" stroke-width="3" stroke-linecap="round"/>
      </g>
      <g transform="translate(28 40)">
        <rect width="46" height="46" rx="8" fill="#0d1826" stroke="#1f6feb"/>
        <path d="M18 15l-8 8l8 8M28 15l8 8l-8 8" stroke="#58a6ff" stroke-width="2" stroke-linecap="round" stroke-linejoin="round"/>
      </g>
      <g transform="translate(344 40)">
        <rect width="48" height="48" rx="8" fill="#0d1826" stroke="#1f6feb"/>
        <path d="M14 16h20v18H14zM18 12v8M30 12v8M18 34v6M30 34v6" stroke="#58a6ff" stroke-width="2"/>
      </g>
    </g>

    <!-- Hero counters -->
    <g transform="translate(24 382)" class="sans">
      <g>
        <rect x="0" y="0" width="158" height="74" rx="7" class="inner"/>
        <text x="18" y="28" class="micro muted" font-weight="700">Projets</text>
        <text x="18" y="56" class="small text" font-weight="900">30+</text>
      </g>
      <g transform="translate(174 0)">
        <rect x="0" y="0" width="158" height="74" rx="7" class="inner"/>
        <text x="18" y="28" class="micro muted" font-weight="700">APIs</text>
        <text x="18" y="56" class="small text" font-weight="900">REST</text>
      </g>
      <g transform="translate(348 0)">
        <rect x="0" y="0" width="158" height="74" rx="7" class="inner"/>
        <text x="18" y="28" class="micro muted" font-weight="700">Workers</text>
        <text x="18" y="56" class="small text" font-weight="900">Jobs</text>
      </g>
      <g transform="translate(522 0)">
        <rect x="0" y="0" width="158" height="74" rx="7" class="inner"/>
        <text x="18" y="28" class="micro muted" font-weight="700">Realtime</text>
        <text x="18" y="56" class="small text" font-weight="900">WS</text>
      </g>
      <g transform="translate(696 0)">
        <rect x="0" y="0" width="158" height="74" rx="7" class="inner"/>
        <text x="18" y="28" class="micro muted" font-weight="700">Mobile</text>
        <text x="18" y="56" class="small text" font-weight="900">API</text>
      </g>
      <g transform="translate(870 0)">
        <rect x="0" y="0" width="142" height="74" rx="7" class="inner"/>
        <text x="18" y="28" class="micro muted" font-weight="700">Livraison</text>
        <text x="18" y="56" class="small text" font-weight="900">Docker</text>
      </g>
    </g>
  </g>

  <!-- Sidebar -->
  <g transform="translate(1132 178)" class="sans">
    <rect x="0" y="0" width="432" height="488" rx="8" class="card" filter="url(#softShadow)"/>
    <text x="28" y="54" class="small text" font-weight="800">Repository</text>
    <text x="28" y="94" class="small soft" font-weight="700">TheLaboFerdi Backend Lab</text>
    <text x="28" y="128" class="tiny soft">Un profil GitHub construit comme un lab</text>
    <text x="28" y="152" class="tiny soft">backend: APIs, données, auth, workers,</text>
    <text x="28" y="176" class="tiny soft">mobile et automatisation propre.</text>
    <g transform="translate(28 226)">
      <rect x="0" y="0" width="374" height="48" rx="7" class="inner"/>
      <text x="42" y="30" class="micro blue" font-weight="800">Read the Profile</text>
      <path d="M18 17h14v14H18zM25 17v14M18 24h14" stroke="#58a6ff" stroke-width="1.7" fill="none"/>
      <path d="M346 16h12v12M358 16l-18 18" stroke="#8b949e" stroke-width="1.7" stroke-linecap="round"/>
    </g>
    <g transform="translate(28 288)">
      <rect x="0" y="0" width="374" height="48" rx="7" class="inner"/>
      <text x="42" y="30" class="micro blue" font-weight="800">API Documentation</text>
      <path d="M18 18h16M18 26h16M18 34h11" stroke="#58a6ff" stroke-width="1.7" stroke-linecap="round"/>
      <path d="M346 16h12v12M358 16l-18 18" stroke="#8b949e" stroke-width="1.7" stroke-linecap="round"/>
    </g>
    <path d="M28 366H404" class="line"/>
    <text x="28" y="408" class="small text" font-weight="800">Quick Links</text>
    <text x="28" y="448" class="micro muted">Getting Started</text>
    <text x="180" y="448" class="micro muted">Modules</text>
    <text x="286" y="448" class="micro muted">Architecture</text>
  </g>

  <!-- About -->
  <g transform="translate(36 686)" class="sans">
    <rect x="0" y="0" width="1060" height="206" rx="8" class="card"/>
    <text x="26" y="42" class="small text" font-weight="800">About</text>
    <text x="26" y="80" class="tiny soft">Je transforme une idée produit en backend clair: routes lisibles, données structurées,</text>
    <text x="26" y="106" class="tiny soft">authentification propre, erreurs prévisibles, workers et suivi. Chaque brique doit</text>
    <text x="26" y="132" class="tiny soft">pouvoir tourner seule, être testée, puis se connecter sans surprise au mobile ou au web.</text>
    <g transform="translate(640 28)">
      <rect width="386" height="150" rx="7" class="code"/>
      <rect x="0" y="0" width="386" height="32" rx="7" fill="#0b1624"/>
      <circle cx="18" cy="16" r="5" fill="#f85149"/><circle cx="36" cy="16" r="5" fill="#d29922"/><circle cx="54" cy="16" r="5" fill="#3fb950"/>
      <text x="76" y="21" class="micro muted mono">./run.sh</text>
      <text x="24" y="62" class="micro mono muted">1</text><text x="52" y="62" class="micro mono text">docker compose up -d</text>
      <text x="24" y="88" class="micro mono muted">2</text><text x="52" y="88" class="micro mono text">./gradlew build</text>
      <text x="24" y="114" class="micro mono muted">3</text><text x="52" y="114" class="micro mono text">pytest tests/ -q</text>
      <text x="24" y="140" class="micro mono muted">4</text><text x="52" y="140" class="micro mono green">api: healthy</text>
    </g>
  </g>

  <!-- System overview -->
  <g transform="translate(36 914)" class="sans">
    <rect x="0" y="0" width="1060" height="238" rx="8" class="card"/>
    <text x="26" y="42" class="small text" font-weight="800">System Overview</text>
    <g transform="translate(42 78)">
      <rect x="0" y="22" width="150" height="94" rx="8" class="inner"/>
      <rect x="54" y="42" width="42" height="32" rx="4" fill="#15263a" stroke="#58a6ff"/>
      <rect x="62" y="78" width="26" height="5" rx="2" fill="#58a6ff"/>
      <text x="32" y="102" class="micro soft">Client / Frontend</text>
      <path d="M170 70H224" stroke="#2f81f7" stroke-width="2" marker-end="url(#none)"/>
      <path d="M214 60l14 10l-14 10" stroke="#2f81f7" stroke-width="2" fill="none"/>
      <rect x="244" y="22" width="178" height="94" rx="8" fill="#10233b" stroke="#2f81f7"/>
      <circle cx="284" cy="69" r="22" fill="#3fb950"/>
      <path d="M270 72c22-2 34-18 36-31c9 20 1 40-20 47c-4-6-8-11-16-16z" fill="#07111d" opacity="0.82"/>
      <text x="320" y="76" class="micro text" font-weight="800">API Gateway</text>
      <path d="M444 70H500" stroke="#2f81f7" stroke-width="2"/>
      <path d="M490 60l14 10l-14 10" stroke="#2f81f7" stroke-width="2" fill="none"/>
      <g transform="translate(524 0)">
        <rect x="0" y="0" width="260" height="48" rx="7" class="inner"/>
        <text x="44" y="31" class="micro text" font-weight="800">Auth Service</text>
        <rect x="16" y="14" width="16" height="20" rx="3" fill="#1f6feb"/>
        <rect x="0" y="62" width="260" height="48" rx="7" class="inner"/>
        <text x="44" y="93" class="micro text" font-weight="800">User Service</text>
        <circle cx="24" cy="86" r="10" fill="#58a6ff"/>
        <rect x="0" y="124" width="260" height="48" rx="7" class="inner"/>
        <text x="44" y="155" class="micro text" font-weight="800">Automation Worker</text>
        <path d="M18 142h12l-6 12z" fill="#bc8cff"/>
      </g>
      <path d="M810 86H870" stroke="#2f81f7" stroke-width="2"/>
      <path d="M860 76l14 10l-14 10" stroke="#2f81f7" stroke-width="2" fill="none"/>
      <g transform="translate(896 34)">
        <ellipse cx="66" cy="24" rx="56" ry="20" fill="#15263a" stroke="#8b949e"/>
        <path d="M10 24v66c0 11 25 20 56 20s56-9 56-20V24" fill="#15263a" stroke="#8b949e"/>
        <ellipse cx="66" cy="90" rx="56" ry="20" fill="#15263a" stroke="#8b949e"/>
        <text x="28" y="130" class="micro soft">PostgreSQL</text>
      </g>
    </g>
  </g>

  <!-- Modules -->
  <g transform="translate(36 1174)" class="sans">
    <rect x="0" y="0" width="1060" height="386" rx="8" class="card"/>
    <text x="26" y="42" class="small text" font-weight="800">Modules</text>
    <g transform="translate(26 66)">
      <g>
        <rect x="0" y="0" width="320" height="140" rx="8" class="inner"/>
        <circle cx="42" cy="42" r="23" fill="#0b1d2e" stroke="#58a6ff" stroke-width="3"/>
        <path d="M31 42c13 0 11-20 24-20c16 0 16 40 0 40c-13 0-11-20-24-20z" stroke="#3fb950" stroke-width="4" fill="none"/>
        <text x="88" y="36" class="small text" font-weight="800">Auth Service</text>
        <text x="88" y="66" class="micro muted">Permissions, sessions, tokens.</text>
        <rect x="18" y="100" width="78" height="24" rx="12" fill="#10261a" stroke="#238636"/>
        <text x="30" y="116" class="micro green" font-weight="800">FastAPI</text>
        <rect x="248" y="100" width="54" height="24" rx="12" fill="#10261a" stroke="#238636"/>
        <text x="262" y="116" class="micro green" font-weight="800">OK</text>
      </g>
      <g transform="translate(346 0)">
        <rect x="0" y="0" width="320" height="140" rx="8" class="inner"/>
        <circle cx="42" cy="42" r="23" fill="#10233b" stroke="#2f81f7" stroke-width="3"/>
        <circle cx="42" cy="35" r="11" fill="#58a6ff"/><path d="M22 70c5-17 35-17 40 0" fill="#58a6ff"/>
        <text x="88" y="36" class="small text" font-weight="800">User Service</text>
        <text x="88" y="66" class="micro muted">Profils, droits et préférences.</text>
        <rect x="18" y="100" width="78" height="24" rx="12" fill="#10261a" stroke="#238636"/>
        <text x="30" y="116" class="micro green" font-weight="800">NestJS</text>
        <rect x="110" y="100" width="100" height="24" rx="12" fill="#0b1d2e" stroke="#1f6feb"/>
        <text x="124" y="116" class="micro blue" font-weight="800">Postgres</text>
      </g>
      <g transform="translate(692 0)">
        <rect x="0" y="0" width="316" height="140" rx="8" class="inner"/>
        <circle cx="42" cy="42" r="22" fill="#2b2111" stroke="#d29922" stroke-width="3"/>
        <path d="M31 52h22l-4-8V33c0-11-14-11-14 0v11z" fill="#ffd166"/>
        <text x="88" y="36" class="small text" font-weight="800">Notification Service</text>
        <text x="88" y="66" class="micro muted">Emails, webhooks, queues.</text>
        <rect x="18" y="100" width="84" height="24" rx="12" fill="#10261a" stroke="#238636"/>
        <text x="30" y="116" class="micro green" font-weight="800">Workers</text>
        <rect x="236" y="100" width="58" height="24" rx="12" fill="#10261a" stroke="#238636"/>
        <text x="250" y="116" class="micro green" font-weight="800">OK</text>
      </g>
      <g transform="translate(0 166)">
        <rect x="0" y="0" width="320" height="140" rx="8" class="inner"/>
        <path d="M22 72h14V42H22zM44 72h14V24H44zM66 72h14V52H66z" fill="#8957e5"/><path d="M22 86h70" stroke="#58a6ff" stroke-width="3"/>
        <text x="108" y="36" class="small text" font-weight="800">Analytics Service</text>
        <text x="108" y="66" class="micro muted">Événements, métriques, suivi.</text>
        <rect x="18" y="100" width="92" height="24" rx="12" fill="#10261a" stroke="#238636"/>
        <text x="30" y="116" class="micro green" font-weight="800">Prometheus</text>
        <rect x="224" y="100" width="78" height="24" rx="12" fill="#2b2111" stroke="#9e6a03"/>
        <text x="238" y="116" class="micro orange" font-weight="800">Progress</text>
      </g>
      <g transform="translate(346 166)">
        <rect x="0" y="0" width="320" height="140" rx="8" class="inner"/>
        <circle cx="42" cy="42" r="20" stroke="#6e7cff" stroke-width="7" fill="none"/><path d="M56 58l22 22" stroke="#6e7cff" stroke-width="7" stroke-linecap="round"/>
        <text x="98" y="36" class="small text" font-weight="800">Search Service</text>
        <text x="98" y="66" class="micro muted">Recherche, filtres, index.</text>
        <rect x="18" y="100" width="92" height="24" rx="12" fill="#10261a" stroke="#238636"/>
        <text x="30" y="116" class="micro green" font-weight="800">Elastic</text>
        <rect x="224" y="100" width="78" height="24" rx="12" fill="#2b2111" stroke="#9e6a03"/>
        <text x="238" y="116" class="micro orange" font-weight="800">Progress</text>
      </g>
      <g transform="translate(692 166)">
        <rect x="0" y="0" width="316" height="140" rx="8" class="inner"/>
        <rect x="24" y="24" width="20" height="20" rx="4" fill="#58a6ff"/><rect x="52" y="24" width="20" height="20" rx="4" fill="#2f81f7"/><rect x="24" y="52" width="20" height="20" rx="4" fill="#6e7cff"/><rect x="52" y="52" width="20" height="20" rx="4" fill="#58a6ff"/>
        <text x="98" y="36" class="small text" font-weight="800">Shared Library</text>
        <text x="98" y="66" class="micro muted">DTOs, erreurs, helpers.</text>
        <rect x="18" y="100" width="62" height="24" rx="12" fill="#0d1826" stroke="#30363d"/>
        <text x="36" y="116" class="micro muted" font-weight="800">TS</text>
        <rect x="242" y="100" width="52" height="24" rx="12" fill="#0b1d2e" stroke="#1f6feb"/>
        <text x="254" y="116" class="micro blue" font-weight="800">Core</text>
      </g>
    </g>
  </g>

  <!-- Tech stack -->
  <g transform="translate(36 1582)" class="sans">
    <rect x="0" y="0" width="1060" height="146" rx="8" class="card"/>
    <text x="26" y="42" class="small text" font-weight="800">Tech Stack</text>
    <g transform="translate(40 74)">
      <text x="0" y="30" class="small" fill="#f89820" font-weight="900">Java</text>
      <text x="104" y="30" class="small green" font-weight="900">Spring</text>
      <text x="224" y="30" class="small green" font-weight="900">FastAPI</text>
      <text x="354" y="30" class="small blue" font-weight="900">PostgreSQL</text>
      <text x="512" y="30" class="small blue" font-weight="900">Docker</text>
      <text x="642" y="30" class="small blue" font-weight="900">Compose</text>
      <text x="786" y="30" class="small purple" font-weight="900">JWT</text>
      <text x="876" y="30" class="small orange" font-weight="900">Workers</text>
      <path d="M82 -14V48M204 -14V48M332 -14V48M490 -14V48M620 -14V48M764 -14V48M854 -14V48" class="line"/>
    </g>
  </g>

  <!-- Getting started -->
  <g transform="translate(36 1750)" class="sans">
    <rect x="0" y="0" width="1060" height="252" rx="8" class="card"/>
    <text x="26" y="42" class="small text" font-weight="800">Getting Started</text>
    <g transform="translate(28 78)">
      <rect x="0" y="0" width="500" height="132" rx="7" class="code"/>
      <text x="24" y="34" class="micro mono muted"># Clone and run</text>
      <text x="24" y="62" class="micro mono green">git clone https://github.com/thelabofferdi/thelabofferdi.git</text>
      <text x="24" y="88" class="micro mono blue">cd thelabofferdi</text>
      <text x="24" y="114" class="micro mono text">open README.md</text>
      <g transform="translate(560 0)">
        <circle cx="18" cy="18" r="14" fill="#2f81f7"/><text x="14" y="23" class="micro text" font-weight="800">1</text>
        <text x="48" y="23" class="micro text" font-weight="800">Explorer le profil backend</text>
        <path d="M48 42H430" class="line"/>
        <circle cx="18" cy="60" r="14" fill="#2f81f7"/><text x="14" y="65" class="micro text" font-weight="800">2</text>
        <text x="48" y="65" class="micro text" font-weight="800">Ouvrir les projets publics</text>
        <path d="M48 84H430" class="line"/>
        <circle cx="18" cy="102" r="14" fill="#2f81f7"/><text x="14" y="107" class="micro text" font-weight="800">3</text>
        <text x="48" y="107" class="micro text" font-weight="800">Discuter architecture, API ou livraison</text>
      </g>
    </g>
    <text x="30" y="226" class="micro blue">Tip: voir les repos publics pour SellBulk, WhatAutoSys, GhostPoll et ClipIntelli.</text>
  </g>

  <!-- Metrics -->
  <g transform="translate(36 2024)" class="sans">
    <rect x="0" y="0" width="1060" height="172" rx="8" class="card"/>
    <text x="26" y="42" class="small text" font-weight="800">Metrics</text>
    <g transform="translate(26 72)">
      <rect x="0" y="0" width="226" height="74" rx="8" class="inner"/>
      <text x="18" y="24" class="micro text" font-weight="800">Build Status</text>
      <circle cx="30" cy="50" r="12" fill="#238636"/><path d="M24 50l5 5l9-12" stroke="#e6edf3" stroke-width="2" fill="none"/>
      <text x="52" y="56" class="micro green" font-weight="800">Passing</text><text x="170" y="56" class="micro muted">100%</text>
      <rect x="248" y="0" width="226" height="74" rx="8" class="inner"/>
      <text x="266" y="24" class="micro text" font-weight="800">Test Coverage</text>
      <text x="266" y="57" class="small text" font-weight="900">78%</text><rect x="332" y="49" width="120" height="8" rx="4" fill="#1f2d3d"/><rect x="332" y="49" width="94" height="8" rx="4" fill="#3fb950"/>
      <rect x="496" y="0" width="226" height="74" rx="8" class="inner"/>
      <text x="514" y="24" class="micro text" font-weight="800">Code Quality</text><text x="514" y="58" class="small green" font-weight="900">A</text><text x="594" y="56" class="micro muted">Clean services</text>
      <rect x="744" y="0" width="264" height="74" rx="8" class="inner"/>
      <text x="762" y="24" class="micro text" font-weight="800">Open Issues</text><text x="762" y="58" class="small text" font-weight="900">7</text>
      <path d="M828 58c20-8 32-2 46-12s28-2 43-14s33-7 54-25" stroke="#f85149" stroke-width="2" fill="none"/>
    </g>
  </g>

  <!-- Contact -->
  <g transform="translate(36 2218)" class="sans">
    <rect x="0" y="0" width="1060" height="118" rx="8" class="card"/>
    <circle cx="48" cy="52" r="18" fill="#58a6ff"/><circle cx="82" cy="52" r="18" fill="#8b949e"/><circle cx="66" cy="80" r="22" fill="#c9d1d9"/>
    <text x="122" y="44" class="small text" font-weight="800">Contributing / Contact</text>
    <text x="122" y="76" class="micro muted">Disponible pour APIs, backends produit, automatisations, architecture et livraison.</text>
    <rect x="792" y="34" width="210" height="48" rx="7" fill="#0d1826" stroke="#2f81f7"/>
    <text x="850" y="64" class="micro blue" font-weight="800">GitHub profile</text>
  </g>

  <!-- Right lower sidebar -->
  <g transform="translate(1132 696)" class="sans">
    <rect x="0" y="0" width="432" height="306" rx="8" class="card"/>
    <text x="28" y="44" class="small text" font-weight="800">Quick Links</text>
    <g transform="translate(28 70)">
      <text x="0" y="20" class="micro soft">Getting Started</text><text x="344" y="20" class="micro muted">›</text><path d="M0 38H374" class="line"/>
      <text x="0" y="62" class="micro soft">Modules</text><text x="344" y="62" class="micro muted">›</text><path d="M0 80H374" class="line"/>
      <text x="0" y="104" class="micro soft">Architecture</text><text x="344" y="104" class="micro muted">›</text><path d="M0 122H374" class="line"/>
      <text x="0" y="146" class="micro soft">API Docs</text><text x="344" y="146" class="micro muted">›</text><path d="M0 164H374" class="line"/>
      <text x="0" y="188" class="micro soft">Public Projects</text><text x="344" y="188" class="micro muted">›</text><path d="M0 206H374" class="line"/>
    </g>

    <g transform="translate(0 334)">
      <rect x="0" y="0" width="432" height="164" rx="8" class="card"/>
      <text x="28" y="44" class="small text" font-weight="800">Releases</text>
      <text x="28" y="86" class="small soft" font-weight="800">v1.4.0</text>
      <rect x="96" y="66" width="56" height="24" rx="12" fill="#10261a" stroke="#238636"/>
      <text x="110" y="82" class="micro green" font-weight="800">Latest</text>
      <text x="28" y="116" class="micro muted">2 days ago</text>
      <text x="28" y="146" class="micro blue">+ 11 releases</text>
    </g>

    <g transform="translate(0 526)">
      <rect x="0" y="0" width="432" height="246" rx="8" class="card"/>
      <text x="28" y="44" class="small text" font-weight="800">Languages</text>
      <rect x="28" y="72" width="300" height="10" rx="5" fill="#1f2d3d"/>
      <rect x="28" y="72" width="156" height="10" rx="5" fill="#d29922"/><rect x="184" y="72" width="50" height="10" fill="#f85149"/><rect x="234" y="72" width="44" height="10" fill="#3fb950"/><rect x="278" y="72" width="32" height="10" fill="#58a6ff"/>
      <circle cx="34" cy="112" r="5" fill="#d29922"/><text x="50" y="117" class="micro soft">TypeScript</text><text x="300" y="117" class="micro muted">52.0%</text>
      <circle cx="34" cy="142" r="5" fill="#f85149"/><text x="50" y="147" class="micro soft">Python</text><text x="300" y="147" class="micro muted">18.4%</text>
      <circle cx="34" cy="172" r="5" fill="#3fb950"/><text x="50" y="177" class="micro soft">Rust / Go</text><text x="300" y="177" class="micro muted">14.1%</text>
      <circle cx="34" cy="202" r="5" fill="#58a6ff"/><text x="50" y="207" class="micro soft">Docker</text><text x="300" y="207" class="micro muted">8.2%</text>
      <circle cx="34" cy="232" r="5" fill="#8b949e"/><text x="50" y="237" class="micro soft">Other</text><text x="300" y="237" class="micro muted">7.3%</text>
    </g>

    <g transform="translate(0 800)">
      <rect x="0" y="0" width="432" height="204" rx="8" class="card"/>
      <text x="28" y="44" class="small text" font-weight="800">Badges</text>
      <g transform="translate(28 70)">
        <rect x="0" y="0" width="94" height="26" rx="13" fill="#0d1826" stroke="#30363d"/><text x="14" y="18" class="micro soft">Build</text><rect x="54" y="4" width="34" height="18" rx="9" fill="#10261a"/><text x="62" y="17" class="micro green">OK</text>
        <rect x="116" y="0" width="106" height="26" rx="13" fill="#0d1826" stroke="#30363d"/><text x="130" y="18" class="micro soft">Tests</text><rect x="174" y="4" width="42" height="18" rx="9" fill="#10261a"/><text x="184" y="17" class="micro green">pass</text>
        <rect x="0" y="42" width="122" height="26" rx="13" fill="#0d1826" stroke="#30363d"/><text x="14" y="60" class="micro soft">Coverage</text><rect x="82" y="46" width="34" height="18" rx="9" fill="#2b2111"/><text x="88" y="59" class="micro orange">78</text>
        <rect x="144" y="42" width="112" height="26" rx="13" fill="#0d1826" stroke="#30363d"/><text x="158" y="60" class="micro soft">License</text><rect x="214" y="46" width="36" height="18" rx="9" fill="#2b2111"/><text x="222" y="59" class="micro orange">MIT</text>
        <rect x="0" y="84" width="126" height="26" rx="13" fill="#0d1826" stroke="#30363d"/><text x="14" y="102" class="micro soft">Code Style</text><rect x="88" y="88" width="32" height="18" rx="9" fill="#0b1d2e"/><text x="96" y="101" class="micro blue">std</text>
        <rect x="148" y="84" width="100" height="26" rx="13" fill="#0d1826" stroke="#30363d"/><text x="162" y="102" class="micro soft">PRs</text><rect x="194" y="88" width="48" height="18" rx="9" fill="#10261a"/><text x="202" y="101" class="micro green">open</text>
      </g>
    </g>

    <g transform="translate(0 1032)">
      <rect x="0" y="0" width="432" height="256" rx="8" class="card"/>
      <text x="28" y="44" class="small text" font-weight="800">Activity</text>
      <text x="28" y="76" class="micro muted">Commits (last 30 days)</text>
      <rect x="28" y="96" width="344" height="86" rx="7" class="inner"/>
      <path d="M42 162c18-24 28-18 42-38s28 12 44-8s26-48 42-22s24 18 40-6s30 14 48 0s30-22 48-2s34-6 52-20" stroke="#58a6ff" stroke-width="2.5" fill="none"/>
      <path d="M42 162c18-24 28-18 42-38s28 12 44-8s26-48 42-22s24 18 40-6s30 14 48 0s30-22 48-2s34-6 52-20v96H42z" fill="#1f6feb" opacity="0.16"/>
      <text x="28" y="218" class="micro soft">Commits</text><text x="286" y="218" class="micro green">+42 commits</text>
    </g>

    <g transform="translate(0 1316)">
      <rect x="0" y="0" width="432" height="170" rx="8" class="card"/>
      <text x="28" y="44" class="small text" font-weight="800">Maintainer</text>
      <circle cx="54" cy="92" r="24" fill="#d29922"/><circle cx="48" cy="86" r="5" fill="#010409"/><circle cx="62" cy="86" r="5" fill="#010409"/><path d="M44 102c10 10 24 10 34 0" stroke="#010409" stroke-width="3" fill="none"/>
      <text x="94" y="88" class="micro text" font-weight="800">thelabofferdi</text>
      <text x="94" y="114" class="micro muted">Owner</text>
    </g>

    <g transform="translate(0 1514)">
      <rect x="0" y="0" width="432" height="146" rx="8" class="card"/>
      <text x="28" y="44" class="small text" font-weight="800">License</text>
      <text x="28" y="78" class="micro muted">Profil personnel. Projets clients et</text>
      <text x="28" y="102" class="micro muted">sources privées restent confidentiels.</text>
      <rect x="28" y="116" width="56" height="24" rx="12" fill="#2b2111" stroke="#9e6a03"/>
      <text x="44" y="132" class="micro orange" font-weight="800">MIT</text>
    </g>
  </g>

  <g transform="translate(36 2352)" class="sans">
    <circle cx="10" cy="0" r="10" fill="#8b949e"/>
    <text x="34" y="5" class="micro muted">2026 thelabofferdi</text>
    <text x="628" y="5" class="micro muted">Built with GitHub CLI</text>
    <text x="1150" y="5" class="micro muted">Backend Lab Profile</text>
  </g>
</svg>
